<svg xmlns="http://www.w3.org/2000/svg" width="21" height="21" viewBox="0 0 24 24" fill="none" stroke="currentColor" stroke-width="1.7"><path d="M10.62 17.71 L10.378 17 L10.37 17.003 L10.62 17.71 Z M9.38 17.71 L9.63 17.003 L9.622 17 L9.38 17.71 Z M10 2.24 L9.398 2.687 C9.539 2.878 9.763 2.99 10 2.99 C10.237 2.99 10.461 2.878 10.602 2.687 L10 2.24 Z M10.62 17.71 L10.37 17.003 C10.306 17.026 10.171 17.05 10 17.05 C9.829 17.05 9.694 17.026 9.63 17.003 L9.38 17.71 L9.13 18.417 C9.406 18.514 9.721 18.55 10 18.55 C10.279 18.55 10.594 18.514 10.87 18.417 L10.62 17.71 Z M9.38 17.71 L9.622 17 C8.28 16.542 6.037 15.324 4.139 13.38 C2.251 11.445 0.75 8.841 0.75 5.59 L0 5.59 L-0.75 5.59 C-0.75 9.339 0.989 12.3 3.066 14.428 C5.133 16.546 7.58 17.888 9.138 18.42 L9.38 17.71 Z M0 5.59 L0.75 5.59 C0.75 2.911 2.908 0.75 5.56 0.75 L5.56 0 L5.56 -0.75 C2.072 -0.75 -0.75 2.089 -0.75 5.59 L0 5.59 Z M5.56 0 L5.56 0.75 C7.131 0.75 8.523 1.508 9.398 2.687 L10 2.24 L10.602 1.793 C9.457 0.252 7.629 -0.75 5.56 -0.75 L5.56 0 Z M10 2.24 L10.602 2.687 C11.477 1.509 12.878 0.75 14.44 0.75 L14.44 0 L14.44 -0.75 C12.382 -0.75 10.543 0.251 9.398 1.793 L10 2.24 Z M14.44 0 L14.44 0.75 C17.092 0.75 19.25 2.911 19.25 5.59 L20 5.59 L20.75 5.59 C20.75 2.089 17.928 -0.75 14.44 -0.75 L14.44 0 Z M20 5.59 L19.25 5.59 C19.25 8.841 17.749 11.445 15.861 13.38 C13.963 15.324 11.72 16.542 10.378 17 L10.62 17.71 L10.862 18.42 C12.42 17.888 14.867 16.546 16.934 14.428 C19.011 12.3 20.75 9.339 20.75 5.59 L20 5.59 Z" fill="currentColor" stroke="none" fill-rule="nonzero" transform="translate(2 3.0999999046325684)"/></svg>
