<svg xmlns="http://www.w3.org/2000/svg" width="21" height="21" viewBox="0 0 24 24" fill="none" stroke="currentColor" stroke-width="1.7"><path d="M15 17 L15 16.25 L5 16.25 L5 17 L5 17.75 L15 17.75 L15 17 Z M5 17 L5 16.25 C3.615 16.25 2.575 15.904 1.885 15.263 C1.205 14.632 0.75 13.607 0.75 12 L0 12 L-0.75 12 C-0.75 13.893 -0.205 15.368 0.865 16.362 C1.925 17.346 3.385 17.75 5 17.75 L5 17 Z M0 12 L0.75 12 L0.75 5 L0 5 L-0.75 5 L-0.75 12 L0 12 Z M0 5 L0.75 5 C0.75 3.393 1.205 2.368 1.885 1.737 C2.575 1.096 3.615 0.75 5 0.75 L5 0 L5 -0.75 C3.385 -0.75 1.925 -0.346 0.865 0.638 C-0.205 1.632 -0.75 3.107 -0.75 5 L0 5 Z M5 0 L5 0.75 L15 0.75 L15 0 L15 -0.75 L5 -0.75 L5 0 Z M15 0 L15 0.75 C16.385 0.75 17.425 1.096 18.115 1.737 C18.795 2.368 19.25 3.393 19.25 5 L20 5 L20.75 5 C20.75 3.107 20.205 1.632 19.135 0.638 C18.075 -0.346 16.615 -0.75 15 -0.75 L15 0 Z M20 5 L19.25 5 L19.25 12 L20 12 L20.75 12 L20.75 5 L20 5 Z M20 12 L19.25 12 C19.25 13.607 18.795 14.632 18.115 15.263 C17.425 15.904 16.385 16.25 15 16.25 L15 17 L15 17.75 C16.615 17.75 18.075 17.346 19.135 16.362 C20.205 15.368 20.75 13.893 20.75 12 L20 12 Z" fill="currentColor" stroke="none" fill-rule="nonzero" transform="translate(2 3.5)"/><path d="M10.468 0.586 C10.792 0.328 10.845 -0.144 10.586 -0.468 C10.328 -0.792 9.856 -0.845 9.532 -0.586 L10 0 L10.468 0.586 Z M6.87 2.5 L7.337 3.087 L7.338 3.086 L6.87 2.5 Z M3.12 2.5 L2.651 3.085 L2.653 3.087 L3.12 2.5 Z M0.469 -0.585 C0.146 -0.844 -0.326 -0.792 -0.585 -0.469 C-0.844 -0.146 -0.792 0.326 -0.469 0.585 L0 0 L0.469 -0.585 Z M10 0 L9.532 -0.586 L6.402 1.914 L6.87 2.5 L7.338 3.086 L10.468 0.586 L10 0 Z M6.87 2.5 L6.403 1.913 C5.646 2.516 4.344 2.516 3.587 1.913 L3.12 2.5 L2.653 3.087 C3.956 4.124 6.034 4.124 7.337 3.087 L6.87 2.5 Z M3.12 2.5 L3.589 1.915 L0.469 -0.585 L0 0 L-0.469 0.585 L2.651 3.085 L3.12 2.5 Z" fill="currentColor" stroke="none" fill-rule="nonzero" transform="translate(7 9)"/></svg>
