<svg xmlns="http://www.w3.org/2000/svg" width="21" height="21" viewBox="0 0 24 24" fill="none" stroke="currentColor" stroke-width="1.7"><g transform="scale(1.0909)"><path d="M14.245 5.317 L14.769 5.853 C14.773 5.849 14.778 5.844 14.782 5.84 L14.245 5.317 Z M13.695 6.811 L14.442 6.749 L14.442 6.74 L13.695 6.811 Z M17.417 8.525 L18.167 8.525 C18.167 8.111 17.831 7.775 17.417 7.775 L17.417 8.525 Z M17.417 4.767 L17.417 5.517 C17.831 5.517 18.167 5.181 18.167 4.767 L17.417 4.767 Z M14.245 5.317 L13.721 4.78 C13.182 5.306 12.871 6.067 12.948 6.882 L13.695 6.811 L14.442 6.74 C14.409 6.4 14.538 6.079 14.769 5.853 L14.245 5.317 Z M13.695 6.811 L12.948 6.873 C13.067 8.308 14.354 9.275 15.675 9.275 L15.675 8.525 L15.675 7.775 C15.016 7.775 14.488 7.294 14.442 6.749 L13.695 6.811 Z M15.675 8.525 L15.675 9.275 L17.417 9.275 L17.417 8.525 L17.417 7.775 L15.675 7.775 L15.675 8.525 Z M17.417 8.525 L16.667 8.525 L16.667 9.616 L17.417 9.616 L18.167 9.616 L18.167 8.525 L17.417 8.525 Z M17.417 9.616 L16.667 9.616 C16.667 11.099 15.453 12.313 13.97 12.313 L13.97 13.063 L13.97 13.813 C16.282 13.813 18.167 11.928 18.167 9.616 L17.417 9.616 Z M13.97 13.063 L13.97 12.313 L3.447 12.313 L3.447 13.063 L3.447 13.813 L13.97 13.813 L13.97 13.063 Z M3.447 13.063 L3.447 12.313 C1.963 12.313 0.75 11.099 0.75 9.616 L0 9.616 L-0.75 9.616 C-0.75 11.928 1.135 13.813 3.447 13.813 L3.447 13.063 Z M0 9.616 L0.75 9.616 L0.75 3.447 L0 3.447 L-0.75 3.447 L-0.75 9.616 L0 9.616 Z M0 3.447 L0.75 3.447 C0.75 1.963 1.963 0.75 3.447 0.75 L3.447 0 L3.447 -0.75 C1.135 -0.75 -0.75 1.135 -0.75 3.447 L0 3.447 Z M3.447 0 L3.447 0.75 L13.97 0.75 L13.97 0 L13.97 -0.75 L3.447 -0.75 L3.447 0 Z M13.97 0 L13.97 0.75 C15.453 0.75 16.667 1.963 16.667 3.447 L17.417 3.447 L18.167 3.447 C18.167 1.135 16.282 -0.75 13.97 -0.75 L13.97 0 Z M17.417 3.447 L16.667 3.447 L16.667 4.767 L17.417 4.767 L18.167 4.767 L18.167 3.447 L17.417 3.447 Z M17.417 4.767 L17.417 4.017 L15.565 4.017 L15.565 4.767 L15.565 5.517 L17.417 5.517 L17.417 4.767 Z M15.565 4.767 L15.565 4.017 C14.851 4.017 14.189 4.299 13.708 4.793 L14.245 5.317 L14.782 5.84 C14.979 5.638 15.253 5.517 15.565 5.517 L15.565 4.767 Z" fill="currentColor" stroke="none" fill-rule="nonzero" transform="translate(2.2916667461395264 7.103642821311951)"/><path d="M-0.75 9.501 C-0.75 9.915 -0.414 10.251 0 10.251 C0.414 10.251 0.75 9.915 0.75 9.501 L0 9.501 L-0.75 9.501 Z M1.687 2.864 L1.422 2.162 L1.421 2.163 L1.687 2.864 Z M8.965 0.114 L9.23 0.816 L9.231 0.815 L8.965 0.114 Z M10.571 5.229 C10.571 5.643 10.907 5.979 11.321 5.979 C11.735 5.979 12.071 5.643 12.071 5.229 L11.321 5.229 L10.571 5.229 Z M0 9.501 L0.75 9.501 L0.75 5.312 L0 5.312 L-0.75 5.312 L-0.75 9.501 L0 9.501 Z M0 5.312 L0.75 5.312 C0.75 4.531 1.228 3.84 1.952 3.566 L1.687 2.864 L1.421 2.163 C0.111 2.658 -0.75 3.91 -0.75 5.312 L0 5.312 Z M1.687 2.864 L1.952 3.566 L9.23 0.816 L8.965 0.114 L8.7 -0.588 L1.422 2.162 L1.687 2.864 Z M8.965 0.114 L9.231 0.815 C9.875 0.571 10.571 1.049 10.571 1.746 L11.321 1.746 L12.071 1.746 C12.071 0.004 10.329 -1.205 8.699 -0.587 L8.965 0.114 Z M11.321 1.746 L10.571 1.746 L10.571 5.229 L11.321 5.229 L12.071 5.229 L12.071 1.746 L11.321 1.746 Z" fill="currentColor" stroke="none" fill-rule="nonzero" transform="translate(2.2916667461395264 1.8751271963119507)"/><path d="M3.785 3.758 L3.785 4.508 C3.794 4.508 3.803 4.508 3.812 4.508 L3.785 3.758 Z M0.008 2.044 L0.756 1.982 L0.755 1.973 L0.008 2.044 Z M0.558 0.55 L1.082 1.087 C1.087 1.082 1.091 1.078 1.096 1.073 L0.558 0.55 Z M3.785 0 L3.812 -0.75 C3.803 -0.75 3.794 -0.75 3.785 -0.75 L3.785 0 Z M4.702 0.935 L3.952 0.935 L3.952 2.823 L4.702 2.823 L5.452 2.823 L5.452 0.935 L4.702 0.935 Z M4.702 2.823 L3.952 2.823 C3.952 2.913 3.879 3.004 3.758 3.009 L3.785 3.758 L3.812 4.508 C4.718 4.475 5.452 3.742 5.452 2.823 L4.702 2.823 Z M3.785 3.758 L3.785 3.008 L1.988 3.008 L1.988 3.758 L1.988 4.508 L3.785 4.508 L3.785 3.758 Z M1.988 3.758 L1.988 3.008 C1.329 3.008 0.801 2.527 0.756 1.982 L0.008 2.044 L-0.739 2.106 C-0.619 3.541 0.667 4.508 1.988 4.508 L1.988 3.758 Z M0.008 2.044 L0.755 1.973 C0.723 1.633 0.851 1.312 1.082 1.087 L0.558 0.55 L0.034 0.013 C-0.504 0.539 -0.816 1.3 -0.738 2.115 L0.008 2.044 Z M0.558 0.55 L1.096 1.073 C1.293 0.871 1.566 0.75 1.878 0.75 L1.878 0 L1.878 -0.75 C1.164 -0.75 0.502 -0.468 0.021 0.027 L0.558 0.55 Z M1.878 0 L1.878 0.75 L3.785 0.75 L3.785 0 L3.785 -0.75 L1.878 -0.75 L1.878 0 Z M3.785 0 L3.758 0.75 C3.879 0.754 3.952 0.845 3.952 0.935 L4.702 0.935 L5.452 0.935 C5.452 0.017 4.718 -0.717 3.812 -0.75 L3.785 0 Z" fill="currentColor" stroke="none" fill-rule="nonzero" transform="translate(15.977213859558105 11.871012687683105)"/><path d="M0 -0.75 C-0.414 -0.75 -0.75 -0.414 -0.75 0 C-0.75 0.414 -0.414 0.75 0 0.75 L0 0 L0 -0.75 Z M6.417 0.75 C6.831 0.75 7.167 0.414 7.167 0 C7.167 -0.414 6.831 -0.75 6.417 -0.75 L6.417 0 L6.417 0.75 Z M0 0 L0 0.75 L6.417 0.75 L6.417 0 L6.417 -0.75 L0 -0.75 L0 0 Z" fill="currentColor" stroke="none" fill-rule="nonzero" transform="translate(6.416666507720947 11)"/></g></svg>
